# xmcd
#
# Track frame offsets:
#	150
#	17782
#	31684
#	49327
#	66462
#	79530
#	92767
#	106743
#	127351
#	145314
#	160039
#
# Disc length: 2382 seconds
#
# Revision: 0
# Processed by: cddbd v1.5.2PL0 Copyright (c) Steve Scherf et al.
# Submitted via: EasyCDDAExtractor 11.0.0.1
#
DISCID=90094c0b
DTITLE=Rik Reese and Neon Highway - Mama Raised a Good Boy
DYEAR=2008
DGENRE=Country
TTITLE0=Headin Down to Memphis
TTITLE1=Just my Luck
TTITLE2=Old Spice er Gun Powder
TTITLE3=All for Me
TTITLE4=Long White Line
TTITLE5=Someday (I will be)
TTITLE6=Reasons
TTITLE7=Strong Enough
TTITLE8=Mama Raised a Good Boy
TTITLE9=Aint Lookin for Me
TTITLE10=Old Black Train
EXTD=
EXTT0=
EXTT1=
EXTT2=
EXTT3=
EXTT4=
EXTT5=
EXTT6=
EXTT7=
EXTT8=
EXTT9=
EXTT10=
PLAYORDER=
